<svg id="Ebene_1" data-name="Ebene 1" xmlns="http://www.w3.org/2000/svg" viewBox="0 0 327.52 107.61"><defs><style>.cls-1{fill:#191919;}</style></defs><path class="cls-1" d="M97.45,184.05c5.79,0,11.58,0,17.37,0,1.34,0,2,.4,2.13,1.8,1.4,11.46-.81,22-8.41,30.94-6.55,7.72-15.16,11.52-25.1,12.62a42.11,42.11,0,0,1-28.57-6.75,41.29,41.29,0,0,1-18.56-29.07c-1.71-10.76,1-20.64,7.31-29.43,7-9.71,16.33-15.86,28.27-17.56,12.61-1.79,23.9,1.34,33.67,9.66,1.18,1,1.3,1.73.08,2.84-1.94,1.76-3.77,3.65-5.55,5.57-.9,1-1.57,1-2.59.16a28.45,28.45,0,0,0-14.87-6.72c-12.87-1.73-24.75,4.15-30.4,15.34-5.93,11.74-5,23.24,3.11,33.66,5.36,6.86,12.73,10.43,21.56,10.77,6.45.25,12.52-.91,18-4.49A22.24,22.24,0,0,0,105,197.26c.19-1.34-.23-1.72-1.53-1.71-7.65,0-15.29,0-22.94,0-2.42,0-2.43,0-2.44-2.5s.06-4.7,0-7c0-1.49.5-2,2-2C85.87,184.08,91.66,184.05,97.45,184.05Z" transform="translate(-35.81 -146.08)"/><path class="cls-1" d="M278,223.7a42.47,42.47,0,0,1-4.7,3.52c-6.37,3.5-13,3.2-19.4.31-9-4-14.38-11.15-15.72-20.89-2.08-15.21,8.12-28.84,22.67-30.66,5.73-.71,11.11.43,15.63,4.35a11,11,0,0,0,1.33.87c.09-.51.18-.81.2-1.11.14-2.6.13-2.6,2.67-2.6,2.24,0,4.48,0,6.72,0,2,0,2.12.11,2.12,2.15q0,16.14,0,32.29c0,5.18.13,10.38-.05,15.56-.21,6.33-1.68,12.34-5.65,17.48A21.24,21.24,0,0,1,270.59,253c-7.56,1.43-14.8.72-21.33-3.8a27.28,27.28,0,0,1-8.62-10.12c-.53-1-.38-1.54.71-2,2.48-1,4.94-2.06,7.39-3.14a1.68,1.68,0,0,1,2.51.86c2.1,3.67,4.92,6.67,9.23,7.53,9.85,2,17-3.2,17.54-13.07C278.12,227.53,278,225.74,278,223.7Zm-13.37-37a13.63,13.63,0,0,0-9,3.27,17.32,17.32,0,0,0-2.45,23,13.88,13.88,0,0,0,22.57.12,17.35,17.35,0,0,0,2.75-14.34C277,191.39,271.52,186.7,264.66,186.7Z" transform="translate(-35.81 -146.08)"/><path class="cls-1" d="M147.82,175.84c15.63,0,27,11.39,27,27a26.55,26.55,0,0,1-27,26.83c-15.35,0-27.14-11.88-27.13-27.3C120.72,187.47,132.62,175.83,147.82,175.84Zm14.86,26.59a15.75,15.75,0,0,0-3.19-10c-5.28-7.35-17.19-7.66-22.83-.59-4.07,5.1-4.74,10.8-2.81,16.83a14.71,14.71,0,0,0,16.65,9.87C157.86,217.06,162.69,210.79,162.68,202.43Z" transform="translate(-35.81 -146.08)"/><path class="cls-1" d="M206.33,175.85c14.59,0,27.21,10.52,27,27-.16,15.95-12,26.77-27,26.79-16.55,0-27.24-13.15-27.09-27.42A26.54,26.54,0,0,1,206.33,175.85Zm15,25.55a15.86,15.86,0,0,0-6.06-11.78c-5.19-4.19-13.91-3.88-18.72.74-4.36,4.19-5.74,9.31-5,15.21A15,15,0,0,0,211.16,218C217.26,215.94,221.34,209.79,221.34,201.4Z" transform="translate(-35.81 -146.08)"/><path class="cls-1" d="M340.17,175.75c10.08.4,17.28,6.13,21.64,15.9.42.94.75,1.93,1.22,2.86.57,1.13.34,1.69-.89,2.19-9.45,3.86-18.87,7.79-28.3,11.69-1.41.59-2.83,1.16-4.24,1.76-1.72.72-1.74,1-.67,2.62,4.66,7.06,14.25,7.51,19.91,3.59a23.18,23.18,0,0,0,4-3.8c.73-.81,1.25-1,2.18-.38q3.57,2.46,7.22,4.81c.88.57.84,1.08.22,1.85-5.82,7.19-13.27,10.94-22.61,10.83a26,26,0,0,1-25.48-23.88c-.57-6.92.54-13.4,4.51-19.18C323.77,179.49,330.6,175.9,340.17,175.75Zm9.47,15.95a22.34,22.34,0,0,0-2.89-3.06,11.22,11.22,0,0,0-12.07-1c-4.88,2.41-8.19,6.13-8.72,11.78-.19,2,.14,2.18,2,1.43q6.43-2.64,12.84-5.34C343.56,194.3,346.35,193.1,349.64,191.7Z" transform="translate(-35.81 -146.08)"/><path class="cls-1" d="M309.22,188.5v37.2c0,2.26-.07,2.32-2.28,2.33h-7.7c-2.09,0-2.18-.11-2.19-2.26v-74.4c0-2.36.05-2.41,2.37-2.41q3.76,0,7.53,0c2.2,0,2.27.07,2.27,2.34Z" transform="translate(-35.81 -146.08)"/></svg>